<?xml version="1.0"?>
<svg version="1.1" xmlns="http://www.w3.org/2000/svg" width="400px" height="150px" style=""><path fill="#ffffff" d="M77.72,95.6l0,3.4l-12.72,0l0-3.4l3-1.08l-0.96-2.92l-8.88,0l-1,2.88l3.12,1.12l0,3.4l-12.08,0l0-3.4l2.92-1.12l8.8-23.56l6.4-0.12l8.6,23.68z M65.72,87.32l-3-9.48l-3.16,9.48l6.16,0z M90.5004,77.4l0.36,2.76s2.88-3.16,5.56-3.16c2.2,0,3.72,0.72,3.72,0.72l-0.32,7.68l-3.6,0l-0.6-3.4c-2.32,0-4.32,2.24-4.32,2.24l0,10.56l4,1l0,3.2l-13.2,0l0-3.2l3.2-1l0-13l-3.2-1l0-3.2z M103.3208,80.8l0-3.2l10.68-0.2l0,3.4l-2.24,0.4l3.56,11.2l3.4-11.08l-2.32-0.52l0-3.2l10.76-0.2l0,3.4l-2.48,0.52l-5.88,16.4c-1.92,5.28-4.52,10.88-10.88,10.88c-1.36,0-3.88-0.32-3.88-0.32l0.56-4.28l2.6,0c3.2,0,4.68-3.4,5.36-4.96l-7.12-17.6z M144.9812,99l-0.72-2.6s-3.08,3-6.48,3c-3.88,0-6.24-2.28-6.24-6.28c0-4.72,3.56-6.6,9.64-6.6l2.8,0l0-2.2c0-2.04-1.08-2.92-3.08-2.92c-2.04,0-3.52,0.6-3.52,0.6l-0.6,2.52l-3.6,0l-0.28-5.92s4.84-1.6,8.68-1.6c6.08,0,8.4,2.12,8.4,7.92l0,9.88l3,0.72l0,3.2z M143.9812,89.92l-2.28,0c-3.12,0-4.36,0.8-4.36,2.6c0,1.52,0.84,2.4,2.36,2.4c2.12,0,4.28-2.32,4.28-2.32l0-2.68z M166.6416,77.4l0.28,2.76s3.8-3.08,7.36-3.08c3.88,0,6.08,2.76,6.08,7.12l0,10.6l2.8,1l0,3.2l-11,0l0-3.2l2.2-1l0-9.52c0-1.84-1.04-3.2-2.72-3.2c-2.48,0-4.28,2.28-4.28,2.28l0,10.44l2.2,1l0,3.2l-11.4,0l0-3.2l3.2-1l0-13l-3.2-1l0-3.2z"/><path fill="#ffffff" d="M221.84,99l4.04,0l-17.88-14.28l17.88-13.76l-4.04,0l-15.36,12.24l0-12.24l-2.52,0l0,28.04l2.52,0l0-12.24z M253.7936,70.96l-2.52,0l0,17.08q0,3.68-2.56,6.16q-2.52,2.4-6,2.4q-3.8,0-6.12-2.4q-2.36-2.44-2.36-6.16l0-17.08l-2.56,0l0,17.08q0,4.56,3.12,7.76q3.16,3.28,7.92,3.28q4.44,0,7.8-3.28q3.28-3.2,3.28-7.76l0-17.08z M259.9072,98.92l2.48,0l0-16.92q0-3.36,2.56-5.92t5.92-2.56q3.28,0,5.92,2.56q2.52,2.52,2.52,5.92l0,16.92l2.56,0l0-16.92q0-3.44,2.56-5.92q2.56-2.56,5.88-2.56q3.36,0,5.92,2.56t2.56,5.92l0,16.92l2.48,0l0-16.92q0-4.56-3.2-7.76t-7.76-3.2q-3,0-5.64,1.64q-2.68,1.68-3.84,4.28q-1.56-2.68-4.2-4.28q-2.76-1.64-5.76-1.64q-4.52,0-7.72,3.2q-3.24,3.24-3.24,7.76l0,16.92z M317.9408,70.84q-4.48,0-7.52,3.24q-3,3.2-3,7.8l0,17.12l2.52,0l0-12.56l16.08,0l0,12.56l2.52,0l0-17.12q0-4.6-3-7.8q-3.12-3.24-7.6-3.24z M326.0208,83.96l-16.08,0l0-2.08q0-3.44,2.32-5.96q2.36-2.56,5.68-2.56t5.76,2.56q2.32,2.52,2.32,5.96l0,2.08z M346.8144,84.96l3,0q3.04,0,5.04-2t2-5.04q0-2.68-2-4.8q-2.12-2.2-5.04-2.2l-12.52,0l-2.48,0l0,28.08l2.48,0l0-14.04l6.52,0l8.52,14.04l3,0z M337.2944,82.48l0-9.04l12.52,0q1.84,0,3.24,1.32q1.32,1.32,1.32,3.16q0,1.92-1.32,3.24q-1.4,1.32-3.24,1.32l-12.52,0z M367.448,96.76q0-1.28-0.78-2.06t-2.06-0.78q-0.88,0-1.56,0.8t-0.68,2.04q0,0.84,0.7,1.54t1.54,0.7q1.24,0,2.04-0.68t0.8-1.56z"/></svg>
